<?xml version="1.0" encoding="UTF-8"?>
<svg version="1.1" xmlns="http://www.w3.org/2000/svg" width="59" height="50">
<path d="M0 0 C2.64 0 5.28 0 8 0 C6.72361863 3.39037635 5.25674434 6.4180524 3.36328125 9.50390625 C2.86892578 10.32697266 2.37457031 11.15003906 1.86523438 11.99804688 C0.82519548 13.71574633 -0.2217599 15.4292759 -1.27539062 17.13867188 C-1.76587891 17.96044922 -2.25636719 18.78222656 -2.76171875 19.62890625 C-3.21506592 20.37213135 -3.66841309 21.11535645 -4.13549805 21.88110352 C-5.18725594 24.45896478 -4.91748485 25.41783982 -4 28 C-3.66666667 29.33333333 -3.33333333 30.66666667 -3 32 C9.44568144 32.93643858 9.44568144 32.93643858 20.66015625 29.03515625 C22.12924258 26.7169305 23.10600094 24.58669779 24 22 C24.66 21.01 25.32 20.02 26 19 C29.625 18.8125 29.625 18.8125 33 19 C32.32528027 23.18537081 30.10765265 26.58754085 28 30.1875 C27.63132813 30.82880859 27.26265625 31.47011719 26.8828125 32.13085938 C24.15472274 36.84527726 24.15472274 36.84527726 23 38 C18.83825313 38.43497443 14.67350931 38.57068989 10.49169922 38.6796875 C9.09041402 38.72623538 7.68966436 38.79430842 6.29052734 38.88476562 C1.70195617 39.17624158 -2.51124143 39.19510119 -7 38 C-10.56510005 34.8498212 -12.76458512 31.60645181 -14 27 C-13.08630158 22.87111753 -11.29183269 19.46039251 -9.1796875 15.8203125 C-8.64472656 14.8921875 -8.10976562 13.9640625 -7.55859375 13.0078125 C-7.00300781 12.05648438 -6.44742187 11.10515625 -5.875 10.125 C-5.31167969 9.15046875 -4.74835937 8.1759375 -4.16796875 7.171875 C-2.78349637 4.77838038 -1.39406459 2.3879162 0 0 Z " fill="#000000" transform="translate(21,12)"/>
<path d="M0 0 C0.9583374 0.00523682 1.9166748 0.01047363 2.90405273 0.01586914 C4.45576172 0.02070313 4.45576172 0.02070313 6.03881836 0.02563477 C7.12743164 0.03401367 8.21604492 0.04239258 9.33764648 0.05102539 C10.97636719 0.05779297 10.97636719 0.05779297 12.64819336 0.06469727 C15.35723144 0.07652713 18.06616248 0.09300996 20.77514648 0.11352539 C21.43514648 2.09352539 22.09514648 4.07352539 22.77514648 6.11352539 C12.38014648 6.60852539 12.38014648 6.60852539 1.77514648 7.11352539 C1.11514648 8.43352539 0.45514648 9.75352539 -0.22485352 11.11352539 C1.42514648 11.44352539 3.07514648 11.77352539 4.77514648 12.11352539 C4.16237037 15.07527662 3.52142127 16.49411322 1.77514648 19.11352539 C-1.48266602 19.40649414 -1.48266602 19.40649414 -5.34985352 19.30102539 C-6.63118164 19.27395508 -7.91250977 19.24688477 -9.23266602 19.21899414 C-10.22008789 19.18418945 -11.20750977 19.14938477 -12.22485352 19.11352539 C-11.67307729 14.52688556 -9.67523332 11.17617927 -7.22485352 7.36352539 C-6.85618164 6.77442383 -6.48750977 6.18532227 -6.10766602 5.57836914 C-2.68007361 0.13675345 -2.68007361 0.13675345 0 0 Z " fill="#000000" transform="translate(36.224853515625,15.886474609375)"/>
<path d="M0 0 C4.16226504 -0.22359275 8.32130216 -0.38625784 12.48779297 -0.49438477 C13.90247491 -0.5394723 15.31674131 -0.60076961 16.72998047 -0.67895508 C28.46717942 -1.31172162 28.46717942 -1.31172162 32.26464844 1.93798828 C34.46199882 5.17885025 35.76588606 8.29765817 37 12 C34.23547967 13.38226016 31.9538637 13.09525387 28.875 13.0625 C27.77929688 13.05347656 26.68359375 13.04445313 25.5546875 13.03515625 C24.29011719 13.01775391 24.29011719 13.01775391 23 13 C23.875 8.25 23.875 8.25 25 6 C15.76 6 6.52 6 -3 6 C-2.01 4.02 -1.02 2.04 0 0 Z " fill="#000000" transform="translate(14,0)"/>
<path d="M0 0 C1.03125 0.20625 2.0625 0.4125 3.125 0.625 C2.21976787 4.8252771 0.22217906 8.20466461 -1.9375 11.875 C-2.31455078 12.5246875 -2.69160156 13.174375 -3.08007812 13.84375 C-4.00734115 15.44005091 -4.94058456 17.03287529 -5.875 18.625 C-6.865 18.625 -7.855 18.625 -8.875 18.625 C-10.875 15.625 -10.875 15.625 -10.6640625 13.26953125 C-8.86517799 7.24059653 -6.57062765 1.05977865 0 0 Z " fill="#000000" transform="translate(10.875,11.375)"/>
</svg>
